<svg width="68" height="68" viewBox="0 0 68 68" fill="none" xmlns="http://www.w3.org/2000/svg">
<rect width="68" height="68" rx="10" fill="#33273E"/>
<path d="M31 31V58H36V47C36 37.5 37.5 36 47 36H58V31H31Z" fill="url(#paint0_linear_497_308)"/>
<path d="M41 41V56H46.1481V53.0741C46.1481 47.0926 47.0926 46.1481 53.0741 46.1481H56V41H41Z" fill="url(#paint1_linear_497_308)"/>
<path d="M9 31H22V37H9V31Z" fill="url(#paint2_linear_497_308)"/>
<path d="M31 10H37V22H31V10Z" fill="url(#paint3_linear_497_308)"/>
<defs>
<linearGradient id="paint0_linear_497_308" x1="9" y1="10" x2="58" y2="58" gradientUnits="userSpaceOnUse">
<stop stop-color="#C0FFDA"/>
<stop offset="0.9" stop-color="#006FFF"/>
<stop offset="1" stop-color="#FF8800"/>
</linearGradient>
<linearGradient id="paint1_linear_497_308" x1="9" y1="10" x2="58" y2="58" gradientUnits="userSpaceOnUse">
<stop stop-color="#C0FFDA"/>
<stop offset="0.9" stop-color="#006FFF"/>
<stop offset="1" stop-color="#FF8800"/>
</linearGradient>
<linearGradient id="paint2_linear_497_308" x1="9" y1="10" x2="58" y2="58" gradientUnits="userSpaceOnUse">
<stop stop-color="#C0FFDA"/>
<stop offset="0.9" stop-color="#006FFF"/>
<stop offset="1" stop-color="#FF8800"/>
</linearGradient>
<linearGradient id="paint3_linear_497_308" x1="9" y1="10" x2="58" y2="58" gradientUnits="userSpaceOnUse">
<stop stop-color="#C0FFDA"/>
<stop offset="0.9" stop-color="#006FFF"/>
<stop offset="1" stop-color="#FF8800"/>
</linearGradient>
</defs>
</svg>
