<svg width="258" height="96" viewBox="0 0 258 96" fill="none" xmlns="http://www.w3.org/2000/svg">
<path d="M144.621 55.808H127.821C127.949 57.248 128.493 58.352 129.453 59.12C130.413 59.888 131.597 60.336 133.005 60.464C134.413 60.56 135.853 60.368 137.325 59.888C138.829 59.376 140.173 58.608 141.357 57.584L144.525 61.952C142.765 63.424 140.973 64.48 139.149 65.12C137.357 65.728 135.581 66.032 133.821 66.032C129.757 66.032 126.701 64.896 124.653 62.624C122.637 60.352 121.629 57.136 121.629 52.976C121.629 50.608 122.093 48.544 123.021 46.784C123.981 45.024 125.325 43.664 127.053 42.704C128.813 41.744 130.877 41.28 133.245 41.312C138.429 41.376 141.885 43.408 143.613 47.408C144.093 48.56 144.397 49.824 144.525 51.2C144.685 52.576 144.717 54.112 144.621 55.808ZM133.773 46.688C131.821 46.688 130.333 47.216 129.309 48.272C128.317 49.328 127.821 50.496 127.821 51.776H139.677C139.677 50.464 139.165 49.296 138.141 48.272C137.149 47.216 135.693 46.688 133.773 46.688Z" fill="black"/>
<path d="M170.663 65.6H164.903V51.584C164.903 50.272 164.647 49.296 164.135 48.656C163.655 47.984 163.047 47.536 162.311 47.312C161.607 47.088 160.919 46.976 160.247 46.976C159.607 46.976 158.855 47.088 157.991 47.312C157.159 47.536 156.423 47.984 155.783 48.656C155.143 49.296 154.823 50.272 154.823 51.584V65.6H149.063V51.6C149.063 46.976 151.823 43.52 154 42.608C156.177 41.696 158.176 41.504 160.247 41.504C162.295 41.504 164.487 41.744 165.959 42.608C167.463 43.472 168.615 44.672 169.415 46.208C170.247 47.744 170.663 49.536 170.663 51.584V65.6Z" fill="black"/>
<path d="M180.6 65.168C179.192 64.528 178.04 63.6 177.144 62.384C176.248 61.136 175.576 59.712 175.128 58.112C174.712 56.512 174.504 54.864 174.504 53.168C174.504 50.96 174.904 48.96 175.704 47.168C176.504 45.376 177.672 43.952 179.208 42.896C180.776 41.808 182.696 41.264 184.968 41.264C185.704 41.264 186.552 41.344 187.512 41.504C188.504 41.664 189.304 41.968 189.912 42.416V32H195.672V65.6H189.912V63.68C189.368 64.32 188.536 64.832 187.416 65.216C186.296 65.568 185.112 65.744 183.864 65.744C182.648 65.776 181.56 65.584 180.6 65.168ZM189.912 58.88V47.84C188.248 47.168 186.68 46.944 185.208 47.168C183.768 47.392 182.584 48.016 181.656 49.04C180.76 50.032 180.312 51.408 180.312 53.168C180.312 55.248 180.76 56.896 181.656 58.112C182.552 59.296 183.72 59.984 185.16 60.176C186.632 60.336 188.216 59.904 189.912 58.88Z" fill="black"/>
<path d="M222.996 55.808H206.196C206.324 57.248 206.868 58.352 207.828 59.12C208.788 59.888 209.972 60.336 211.38 60.464C212.788 60.56 214.228 60.368 215.7 59.888C217.204 59.376 218.548 58.608 219.732 57.584L222.9 61.952C221.14 63.424 219.348 64.48 217.524 65.12C215.732 65.728 213.956 66.032 212.196 66.032C208.132 66.032 205.076 64.896 203.028 62.624C201.012 60.352 200.004 57.136 200.004 52.976C200.004 50.608 200.468 48.544 201.396 46.784C202.356 45.024 203.7 43.664 205.428 42.704C207.188 41.744 209.252 41.28 211.62 41.312C216.804 41.376 220.26 43.408 221.988 47.408C222.468 48.56 222.772 49.824 222.9 51.2C223.06 52.576 223.092 54.112 222.996 55.808ZM212.148 46.688C210.196 46.688 208.708 47.216 207.684 48.272C206.692 49.328 206.196 50.496 206.196 51.776H218.052C218.052 50.464 217.54 49.296 216.516 48.272C215.524 47.216 214.068 46.688 212.148 46.688Z" fill="black"/>
<path d="M227.438 65.6V49.6C227.438 42.896 232.564 41.4105 237.614 41.504C239.374 41.536 241.31 41.888 243.422 42.56L240.638 47.504C239.422 47.088 238.222 46.96 237.038 47.12C235.886 47.28 234.942 47.632 234.206 48.176C233.47 48.72 233.118 49.376 233.15 50.144V65.6H227.438Z" fill="black"/>
<path d="M117.768 65.032H112.008V50.776C112.008 49.08 111.592 47.896 110.76 47.224C109.96 46.52 108.872 46.168 107.496 46.168C106.088 46.168 104.856 46.52 103.8 47.224C102.776 47.896 102.264 49.08 102.264 50.776V65.032H96.696V50.776C96.696 49.08 96.232 47.896 95.304 47.224C94.408 46.552 93.336 46.216 92.088 46.216C91.192 46.216 90.328 46.36 89.496 46.648C88.696 46.936 88.04 47.416 87.528 48.088C87.016 48.728 86.76 49.624 86.76 50.776V65H81V50C81 43.528 86 40.36 92.088 40.36C93.56 40.36 95.288 40.632 96.6 41.176C97.944 41.688 99.016 42.472 99.816 43.528C100.648 42.472 101.832 41.688 103.368 41.176C104.904 40.632 106.392 40.36 107.832 40.36C109.624 40.36 111.272 40.808 112.776 41.704C114.28 42.568 115.48 43.784 116.376 45.352C117.304 46.888 117.768 48.696 117.768 50.776V65.032Z" fill="black"/>
<path d="M30 35V62H35V51C35 41.5 36.5 40 46 40H57V35H30Z" fill="black"/>
<path d="M40 45V62H45.1481V57.0741C45.1481 51.0926 46.0926 50.1481 52.0741 50.1481H57V45H40Z" fill="black"/>
<path d="M22.5 37C22.5 31.7533 26.7533 27.5 32 27.5H64.5V69.5H22.5V37Z" stroke="black" stroke-width="5"/>
</svg>
