<svg width="235" height="64" viewBox="0 0 235 64" fill="none" xmlns="http://www.w3.org/2000/svg">
<path d="M82.36 27.04C83.08 26.0267 84.0667 25.1867 85.32 24.52C86.6 23.8267 88.0533 23.48 89.68 23.48C91.5733 23.48 93.28 23.9467 94.8 24.88C96.3467 25.8133 97.56 27.1467 98.44 28.88C99.3467 30.5867 99.8 32.5733 99.8 34.84C99.8 37.1067 99.3467 39.12 98.44 40.88C97.56 42.6133 96.3467 43.96 94.8 44.92C93.28 45.88 91.5733 46.36 89.68 46.36C88.0533 46.36 86.6133 46.0267 85.36 45.36C84.1333 44.6933 83.1333 43.8533 82.36 42.84V56.56H76.76V23.84H82.36V27.04ZM94.08 34.84C94.08 33.5067 93.8 32.36 93.24 31.4C92.7067 30.4133 91.9867 29.6667 91.08 29.16C90.2 28.6533 89.24 28.4 88.2 28.4C87.1867 28.4 86.2267 28.6667 85.32 29.2C84.44 29.7067 83.72 30.4533 83.16 31.44C82.6267 32.4267 82.36 33.5867 82.36 34.92C82.36 36.2533 82.6267 37.4133 83.16 38.4C83.72 39.3867 84.44 40.1467 85.32 40.68C86.2267 41.1867 87.1867 41.44 88.2 41.44C89.24 41.44 90.2 41.1733 91.08 40.64C91.9867 40.1067 92.7067 39.3467 93.24 38.36C93.8 37.3733 94.08 36.2 94.08 34.84ZM116.349 23.52C118.029 23.52 119.523 23.8933 120.829 24.64C122.136 25.36 123.149 26.44 123.869 27.88C124.616 29.2933 124.989 31 124.989 33V46H119.389V33.76C119.389 32 118.949 30.6533 118.069 29.72C117.189 28.76 115.989 28.28 114.469 28.28C112.923 28.28 111.696 28.76 110.789 29.72C109.909 30.6533 109.469 32 109.469 33.76V46H103.869V16.4H109.469V26.6C110.189 25.64 111.149 24.8933 112.349 24.36C113.549 23.8 114.883 23.52 116.349 23.52ZM140.155 46.36C138.021 46.36 136.101 45.8933 134.395 44.96C132.688 44 131.341 42.6533 130.355 40.92C129.395 39.1867 128.915 37.1867 128.915 34.92C128.915 32.6533 129.408 30.6533 130.395 28.92C131.408 27.1867 132.781 25.8533 134.515 24.92C136.248 23.96 138.181 23.48 140.315 23.48C142.448 23.48 144.381 23.96 146.115 24.92C147.848 25.8533 149.208 27.1867 150.195 28.92C151.208 30.6533 151.715 32.6533 151.715 34.92C151.715 37.1867 151.195 39.1867 150.155 40.92C149.141 42.6533 147.755 44 145.995 44.96C144.261 45.8933 142.315 46.36 140.155 46.36ZM140.155 41.48C141.168 41.48 142.115 41.24 142.995 40.76C143.901 40.2533 144.621 39.5067 145.155 38.52C145.688 37.5333 145.955 36.3333 145.955 34.92C145.955 32.8133 145.395 31.2 144.275 30.08C143.181 28.9333 141.835 28.36 140.235 28.36C138.635 28.36 137.288 28.9333 136.195 30.08C135.128 31.2 134.595 32.8133 134.595 34.92C134.595 37.0267 135.115 38.6533 136.155 39.8C137.221 40.92 138.555 41.48 140.155 41.48ZM176.743 23.84V46H171.103V43.2C170.383 44.16 169.436 44.92 168.263 45.48C167.116 46.0133 165.863 46.28 164.503 46.28C162.769 46.28 161.236 45.92 159.903 45.2C158.569 44.4533 157.516 43.3733 156.743 41.96C155.996 40.52 155.623 38.8133 155.623 36.84V23.84H161.223V36.04C161.223 37.8 161.663 39.16 162.543 40.12C163.423 41.0533 164.623 41.52 166.143 41.52C167.689 41.52 168.903 41.0533 169.783 40.12C170.663 39.16 171.103 37.8 171.103 36.04V23.84H176.743ZM187.868 27.28C188.588 26.1067 189.521 25.1867 190.668 24.52C191.841 23.8533 193.174 23.52 194.668 23.52V29.4H193.188C191.428 29.4 190.094 29.8133 189.188 30.64C188.308 31.4667 187.868 32.9067 187.868 34.96V46H182.268V23.84H187.868V27.28ZM219.04 34.44C219.04 35.24 218.986 35.96 218.88 36.6H202.68C202.813 38.2 203.373 39.4533 204.36 40.36C205.346 41.2667 206.56 41.72 208 41.72C210.08 41.72 211.56 40.8267 212.44 39.04H218.48C217.84 41.1733 216.613 42.9333 214.8 44.32C212.986 45.68 210.76 46.36 208.12 46.36C205.986 46.36 204.066 45.8933 202.36 44.96C200.68 44 199.36 42.6533 198.4 40.92C197.466 39.1867 197 37.1867 197 34.92C197 32.6267 197.466 30.6133 198.4 28.88C199.333 27.1467 200.64 25.8133 202.32 24.88C204 23.9467 205.933 23.48 208.12 23.48C210.226 23.48 212.106 23.9333 213.76 24.84C215.44 25.7467 216.733 27.04 217.64 28.72C218.573 30.3733 219.04 32.28 219.04 34.44ZM213.24 32.84C213.213 31.4 212.693 30.2533 211.68 29.4C210.666 28.52 209.426 28.08 207.96 28.08C206.573 28.08 205.4 28.5067 204.44 29.36C203.506 30.1867 202.933 31.3467 202.72 32.84H213.24Z" fill="black"/>
<path d="M32 26V53H37V42C37 32.5 38.5 31 48 31H59V26H32Z" fill="url(#paint0_linear_505_328)"/>
<path d="M42 36V51H47.1481V48.0741C47.1481 42.0926 48.0926 41.1481 54.0741 41.1481H57V36H42Z" fill="url(#paint1_linear_505_328)"/>
<path d="M10 26H23V32H10V26Z" fill="url(#paint2_linear_505_328)"/>
<path d="M32 5H38V17H32V5Z" fill="url(#paint3_linear_505_328)"/>
<defs>
<linearGradient id="paint0_linear_505_328" x1="10" y1="5" x2="59" y2="53" gradientUnits="userSpaceOnUse">
<stop stop-color="#C0FFDA"/>
<stop offset="0.9" stop-color="#006FFF"/>
<stop offset="1" stop-color="#FF8800"/>
</linearGradient>
<linearGradient id="paint1_linear_505_328" x1="10" y1="5" x2="59" y2="53" gradientUnits="userSpaceOnUse">
<stop stop-color="#C0FFDA"/>
<stop offset="0.9" stop-color="#006FFF"/>
<stop offset="1" stop-color="#FF8800"/>
</linearGradient>
<linearGradient id="paint2_linear_505_328" x1="10" y1="5" x2="59" y2="53" gradientUnits="userSpaceOnUse">
<stop stop-color="#C0FFDA"/>
<stop offset="0.9" stop-color="#006FFF"/>
<stop offset="1" stop-color="#FF8800"/>
</linearGradient>
<linearGradient id="paint3_linear_505_328" x1="10" y1="5" x2="59" y2="53" gradientUnits="userSpaceOnUse">
<stop stop-color="#C0FFDA"/>
<stop offset="0.9" stop-color="#006FFF"/>
<stop offset="1" stop-color="#FF8800"/>
</linearGradient>
</defs>
</svg>
