<svg width="230" height="87" viewBox="0 0 230 87" fill="none" xmlns="http://www.w3.org/2000/svg">
<path d="M89.28 40.44V51.16C89.28 51.9067 89.4533 52.4533 89.8 52.8C90.1733 53.12 90.7867 53.28 91.64 53.28H94.24V58H90.72C86 58 83.64 55.7067 83.64 51.12V40.44H81V35.84H83.64V30.36H89.28V35.84H94.24V40.44H89.28ZM110.748 35.52C112.428 35.52 113.921 35.8933 115.228 36.64C116.534 37.36 117.548 38.44 118.268 39.88C119.014 41.2933 119.388 43 119.388 45V58H113.788V45.76C113.788 44 113.348 42.6533 112.468 41.72C111.588 40.76 110.388 40.28 108.868 40.28C107.321 40.28 106.094 40.76 105.188 41.72C104.308 42.6533 103.868 44 103.868 45.76V58H98.2678V28.4H103.868V38.6C104.588 37.64 105.548 36.8933 106.748 36.36C107.948 35.8 109.281 35.52 110.748 35.52ZM134.553 58.36C132.42 58.36 130.5 57.8933 128.793 56.96C127.086 56 125.74 54.6533 124.753 52.92C123.793 51.1867 123.313 49.1867 123.313 46.92C123.313 44.6533 123.806 42.6533 124.793 40.92C125.806 39.1867 127.18 37.8533 128.913 36.92C130.646 35.96 132.58 35.48 134.713 35.48C136.846 35.48 138.78 35.96 140.513 36.92C142.246 37.8533 143.606 39.1867 144.593 40.92C145.606 42.6533 146.113 44.6533 146.113 46.92C146.113 49.1867 145.593 51.1867 144.553 52.92C143.54 54.6533 142.153 56 140.393 56.96C138.66 57.8933 136.713 58.36 134.553 58.36ZM134.553 53.48C135.566 53.48 136.513 53.24 137.393 52.76C138.3 52.2533 139.02 51.5067 139.553 50.52C140.086 49.5333 140.353 48.3333 140.353 46.92C140.353 44.8133 139.793 43.2 138.673 42.08C137.58 40.9333 136.233 40.36 134.633 40.36C133.033 40.36 131.686 40.9333 130.593 42.08C129.526 43.2 128.993 44.8133 128.993 46.92C128.993 49.0267 129.513 50.6533 130.553 51.8C131.62 52.92 132.953 53.48 134.553 53.48ZM171.141 35.84V58H165.501V55.2C164.781 56.16 163.834 56.92 162.661 57.48C161.514 58.0133 160.261 58.28 158.901 58.28C157.168 58.28 155.634 57.92 154.301 57.2C152.968 56.4533 151.914 55.3733 151.141 53.96C150.394 52.52 150.021 50.8133 150.021 48.84V35.84H155.621V48.04C155.621 49.8 156.061 51.16 156.941 52.12C157.821 53.0533 159.021 53.52 160.541 53.52C162.088 53.52 163.301 53.0533 164.181 52.12C165.061 51.16 165.501 49.8 165.501 48.04V35.84H171.141ZM182.266 39.28C182.986 38.1067 183.92 37.1867 185.066 36.52C186.24 35.8533 187.573 35.52 189.066 35.52V41.4H187.586C185.826 41.4 184.493 41.8133 183.586 42.64C182.706 43.4667 182.266 44.9067 182.266 46.96V58H176.666V35.84H182.266V39.28ZM213.438 46.44C213.438 47.24 213.385 47.96 213.278 48.6H197.078C197.211 50.2 197.771 51.4533 198.758 52.36C199.745 53.2667 200.958 53.72 202.398 53.72C204.478 53.72 205.958 52.8267 206.838 51.04H212.878C212.238 53.1733 211.011 54.9333 209.198 56.32C207.385 57.68 205.158 58.36 202.518 58.36C200.385 58.36 198.465 57.8933 196.758 56.96C195.078 56 193.758 54.6533 192.798 52.92C191.865 51.1867 191.398 49.1867 191.398 46.92C191.398 44.6267 191.865 42.6133 192.798 40.88C193.731 39.1467 195.038 37.8133 196.718 36.88C198.398 35.9467 200.331 35.48 202.518 35.48C204.625 35.48 206.505 35.9333 208.158 36.84C209.838 37.7467 211.131 39.04 212.038 40.72C212.971 42.3733 213.438 44.28 213.438 46.44ZM207.638 44.84C207.611 43.4 207.091 42.2533 206.078 41.4C205.065 40.52 203.825 40.08 202.358 40.08C200.971 40.08 199.798 40.5067 198.838 41.36C197.905 42.1867 197.331 43.3467 197.118 44.84H207.638Z" fill="black"/>
<path d="M38 38V65H43V54C43 44.5 44.5 43 54 43H65V38H38Z" fill="url(#paint0_linear_497_260)"/>
<path d="M48 48V63H53.1481V60.0741C53.1481 54.0926 54.0926 53.1481 60.0741 53.1481H63V48H48Z" fill="url(#paint1_linear_497_260)"/>
<path d="M16 38H29V44H16V38Z" fill="url(#paint2_linear_497_260)"/>
<path d="M38 17H44V29H38V17Z" fill="url(#paint3_linear_497_260)"/>
<defs>
<linearGradient id="paint0_linear_497_260" x1="16" y1="17" x2="65" y2="65" gradientUnits="userSpaceOnUse">
<stop stop-color="#C0FFDA"/>
<stop offset="0.9" stop-color="#006FFF"/>
<stop offset="1" stop-color="#FF8800"/>
</linearGradient>
<linearGradient id="paint1_linear_497_260" x1="16" y1="17" x2="65" y2="65" gradientUnits="userSpaceOnUse">
<stop stop-color="#C0FFDA"/>
<stop offset="0.9" stop-color="#006FFF"/>
<stop offset="1" stop-color="#FF8800"/>
</linearGradient>
<linearGradient id="paint2_linear_497_260" x1="16" y1="17" x2="65" y2="65" gradientUnits="userSpaceOnUse">
<stop stop-color="#C0FFDA"/>
<stop offset="0.9" stop-color="#006FFF"/>
<stop offset="1" stop-color="#FF8800"/>
</linearGradient>
<linearGradient id="paint3_linear_497_260" x1="16" y1="17" x2="65" y2="65" gradientUnits="userSpaceOnUse">
<stop stop-color="#C0FFDA"/>
<stop offset="0.9" stop-color="#006FFF"/>
<stop offset="1" stop-color="#FF8800"/>
</linearGradient>
</defs>
</svg>
